<?xml version="1.0"?>
<svg version="1.1" xmlns="http://www.w3.org/2000/svg" width="400px" height="200px" style="border: dashed 2px #aaa"><path fill="#1a6096" d="M84.48,112.88l0-14l-0.84,2.1l-4.34,8.82l-2.24,0.14l-4.34-9.1l-0.7-1.96l0,14l2.66,0.56l0,1.68l-7.56,0l0-1.68l2.38-0.56l0-15.12l-2.38-0.56l0-1.54l6.3-0.14l5.068,11.2l5.292-11.06l5.88-0.14l0,1.68l-2.38,0.56l0,15.12l2.38,0.56l0,1.68l-7.84,0l0-1.68z M95.6408,95.66c0-1.26,0.84-1.96,1.82-1.96c1.12,0,1.82,0.56,1.82,1.96c0,1.26-0.98,1.96-1.82,1.96c-1.12,0-1.82-0.7-1.82-1.96z M101.1008,113.58l0,1.54l-7.28,0l0-1.54l2.38-0.7l0-10.36l-2.38-0.56l0-1.54l5.18-0.14l0,12.6z M107.2496,110.64l0.308,2.408s0.84,0.252,2.352,0.252c1.68,0,3.164-0.476,3.164-2.212c0-3.024-7.812-1.624-7.812-6.72c0-2.912,2.24-4.368,5.124-4.368c2.212,0,4.788,0.84,4.788,0.84l-0.084,3.78l-1.82,0l-0.448-2.184s-0.868-0.336-2.268-0.336c-1.428,0-2.492,0.448-2.492,1.876c0,2.996,7.812,1.848,7.812,6.636c0,3.22-2.8,4.788-6.16,4.788c-2.576,0-4.424-0.616-4.424-0.616l0-4.144l1.96,0z M132.7744,108.12l-9.66,0c0,3.08,1.652,5.04,4.06,5.04c2.8,0,4.704-1.54,4.704-1.54l0.98,1.456s-2.604,2.324-5.964,2.324c-4.48,0-6.72-2.94-6.72-7.56c0-4.48,2.8-7.84,6.86-7.84s5.88,2.38,5.88,6.58c0,0.7-0.14,1.484-0.14,1.54z M123.2264,106.02l6.72,0c0-2.1-0.812-3.836-3.052-3.836s-3.5,1.736-3.668,3.836z M158.176,108.12l-9.66,0c0,3.08,1.652,5.04,4.06,5.04c2.8,0,4.704-1.54,4.704-1.54l0.98,1.456s-2.604,2.324-5.964,2.324c-4.48,0-6.72-2.94-6.72-7.56c0-4.48,2.8-7.84,6.86-7.84s5.88,2.38,5.88,6.58c0,0.7-0.14,1.484-0.14,1.54z M148.628,106.02l6.72,0c0-2.1-0.812-3.836-3.052-3.836s-3.5,1.736-3.668,3.836z M167.2368,100.28l0.252,1.988c0.672-0.588,2.884-2.268,5.208-2.268c3.08,0,4.48,1.96,4.48,5.04l0,7.84l2.1,0.7l0,1.54l-6.72,0l0-1.54l1.82-0.7l0-7.56c0-1.96-0.7-2.94-2.52-2.94c-2.38,0-4.06,2.24-4.06,2.24l0,8.26l1.82,0.7l0,1.54l-7,0l0-1.54l2.38-0.7l0-10.36l-2.38-0.56l0-1.54z M195.8584,100.28l0.224,1.568c0.84-0.784,2.324-1.848,4.256-1.848c4.06,0,6.02,2.94,6.02,7.28c0,4.76-2.38,8.12-7.56,8.12c-0.924,0-1.764-0.168-2.52-0.392l0,4.452l2.94,0.56l0,1.54l-7.98,0l0-1.54l2.24-0.56l0-16.94l-2.38-0.56l0-1.54z M196.2784,104.2l0,8.4s0.84,0.56,2.94,0.56c3.248,0,4.2-2.52,4.2-5.6s-1.12-5.32-3.64-5.32s-3.5,1.96-3.5,1.96z M217.9952,113.58l0,1.54l-7.756,0l0-1.54l2.38-0.7l0-17.08l-2.38-0.56l0-1.54l5.236-0.14l0,19.32z M222.296,104.62l-0.14-3.5s3.08-1.12,5.46-1.12c3.248,0,5.18,1.12,5.18,4.34l0,8.54l2.24,0.56l0,1.54l-4.34,0.14l-0.588-1.96c-0.952,0.952-2.632,2.24-4.592,2.24c-2.66,0-4.2-1.54-4.2-4.2c0-3.22,2.52-4.34,6.44-4.34l2.24,0l0-2.24c0-1.68-0.98-2.52-2.66-2.52s-2.828,0.42-2.828,0.42l-0.392,2.1l-1.82,0z M229.996,108.68l-1.96,0c-2.8,0-3.864,0.7-3.864,2.38c0,1.26,0.784,2.1,2.044,2.1c2.1,0,3.78-2.24,3.78-2.24l0-2.24z M248.9968,104.9l-0.42-2.38s-1.12-0.28-2.52-0.28c-2.66,0-4.2,1.68-4.2,5.18c0,3.78,1.68,5.74,4.34,5.74s4.34-1.68,4.34-1.68l0.98,1.68s-2.52,2.24-5.6,2.24c-4.62,0-7-2.94-7-7.7c0-4.48,2.8-7.7,7.28-7.7c2.52,0,4.76,1.12,4.76,1.12l-0.14,3.78l-1.82,0z M267.7176,108.12l-9.66,0c0,3.08,1.652,5.04,4.06,5.04c2.8,0,4.704-1.54,4.704-1.54l0.98,1.456s-2.604,2.324-5.964,2.324c-4.48,0-6.72-2.94-6.72-7.56c0-4.48,2.8-7.84,6.86-7.84s5.88,2.38,5.88,6.58c0,0.7-0.14,1.484-0.14,1.54z M258.1696,106.02l6.72,0c0-2.1-0.812-3.836-3.052-3.836s-3.5,1.736-3.668,3.836z M294.5192,101.4l-0.756-3.22s-1.484-0.56-3.584-0.56c-3.78,0-5.88,2.8-5.88,7.98c0,5.04,2.52,7.28,6.02,7.28c2.94,0,5.6-2.24,5.6-2.24l1.12,1.82s-2.8,2.94-7,2.94c-5.6,0-8.96-3.36-8.96-9.66c0-6.44,3.64-10.5,9.38-10.5c3.08,0,6.3,1.4,6.3,1.4l-0.14,4.76l-2.1,0z M308.396,113.58l0,1.54l-7.756,0l0-1.54l2.38-0.7l0-17.08l-2.38-0.56l0-1.54l5.236-0.14l0,19.32z M327.9568,113.44l0,1.54l-4.62,0.14l-0.28-1.96c-0.672,0.588-2.884,2.24-5.18,2.24c-3.08,0-4.48-1.932-4.48-5.012l0-7.868l-2.38-0.56l0-1.54l5.18-0.14l0,9.828c0,1.96,0.7,2.912,2.52,2.912c2.38,0,4.06-2.212,4.06-2.212l0-8.288l-2.38-0.56l0-1.54l5.18-0.14l0,12.6z M335.7576,93.56l0,8.064c0.924-0.728,2.38-1.624,4.2-1.624c4.06,0,5.88,2.94,5.88,7.28c0,4.76-2.66,8.12-7.7,8.12c-3.08,0-5.18-0.7-5.18-0.7l0-18.9l-2.24-0.56l0-1.54z M335.7576,104.06l0,8.82s0.728,0.28,2.8,0.28c3.248,0,4.34-2.52,4.34-5.6s-0.98-5.32-3.5-5.32s-3.64,1.82-3.64,1.82z"/><path fill="#" d=""/></svg>
