<?xml version="1.0"?>
<svg version="1.1" xmlns="http://www.w3.org/2000/svg" width="81px" height="42px" style=""><path fill="#1a6096" d="M25.04,31.26c0.02,0.34-0.08,0.54-0.46,0.54l-1.62,0c-0.42,0-0.5-0.2-0.52-0.66l-0.28-8.12l-0.04,0l-3.4,8.42c-0.12,0.32-0.32,0.36-0.54,0.36l-0.7,0c-0.3,0-0.48-0.06-0.62-0.38l-3.78-8.4l-0.04,0l-0.18,8.28c0,0.44-0.18,0.5-0.54,0.5l-1.36,0c-0.38,0-0.54-0.14-0.52-0.52l0.5-12.78c0.02-0.42,0.16-0.54,0.48-0.54l1.18,0c0.4,0,0.54,0.14,0.68,0.44l4.62,9.88l0.04,0l4.22-9.88c0.12-0.3,0.28-0.44,0.64-0.44l1.18,0c0.32,0,0.44,0.12,0.46,0.44z M37.55,31.32c0,0.32-0.14,0.48-0.48,0.48l-7.42,0c-0.4,0-0.54-0.1-0.54-0.54l0-12.8c0-0.32,0.14-0.5,0.46-0.5l7.54,0c0.32,0,0.42,0.12,0.42,0.34l0,0.12l-0.14,1.2c-0.04,0.36-0.26,0.42-0.68,0.42l-5.02,0l0,3.62l4.62,0c0.38,0,0.5,0.16,0.5,0.44l0,1.14c0,0.34-0.14,0.48-0.48,0.48l-4.64,0l0,4l5.36,0c0.34,0,0.5,0.14,0.5,0.46l0,1.14z M50.12,22.32c0,3.1-2.34,4.62-5.28,4.62c-0.16,0-1.06-0.04-1.2-0.06l0,4.44c0,0.3-0.12,0.48-0.5,0.48l-1.6,0c-0.32,0-0.48-0.14-0.48-0.54l0-12.76c0-0.4,0.12-0.54,0.5-0.54l2.9,0c2.12,0,3.68,0.4,4.66,1.52c0.64,0.74,1,1.76,1,2.84z M47.52,22.42c0-1.82-1.12-2.46-2.84-2.46l-1.04,0l0,4.96c0.16,0,1.06,0.02,1.18,0.02c1.7,0,2.7-0.8,2.7-2.52z M63.37,30.82c0,0.18-0.08,0.3-0.32,0.4c-1.32,0.54-2.52,0.82-3.98,0.82c-4.22,0-6.28-2.98-6.28-7.1c0-4.1,2.46-7.24,6.48-7.24c1.38,0,2.62,0.28,3.76,0.84c0.24,0.12,0.32,0.22,0.32,0.34c0,0.08-0.02,0.16-0.06,0.26l-0.46,1.26c-0.06,0.18-0.16,0.26-0.28,0.26c-0.06,0-0.14-0.04-0.22-0.08c-1-0.52-1.9-0.72-2.9-0.72c-2.78,0-3.86,2.56-3.86,4.98c0,3.08,1.44,5.04,3.9,5.04c0.96,0,1.94-0.22,2.88-0.64c0.1-0.04,0.18-0.08,0.24-0.08c0.14,0,0.24,0.1,0.32,0.3l0.4,1.08c0.04,0.1,0.06,0.2,0.06,0.28z"/><path fill="#" d="M276.46,32.18q-0.48,0.74-0.48,0.96t0.18,0.32q0,0.02-0.36,0.3q-0.32,0.16-0.72,0.16t-0.58-0.09t-0.12-0.29q0.28-0.9,2.1-3.61t2.44-3.83q1.34-2.42,1.34-3.86q0-0.6-0.2-1.02q-0.4-0.82-1.9-0.82q-2.34,0-4.84,2.02q-2,1.62-3.06,3.43t-1.06,3.23q0,2.04,1.8,2.08l0.16,0q2.3,0,3.56-1.66q0.48-0.66,0.48-1.12t-0.2-0.58q-0.02-0.02-0.02-0.08t0.12-0.06q0.52,0,0.52,0.68q0,0.42-0.41,1.14t-1.45,1.36t-2.42,0.64t-2.2-0.86t-0.82-2.26q0-3.16,4.12-6.46q1.06-0.84,2.79-1.38t3.31-0.54t2.15,0.55t0.57,1.47q0,1.4-1.14,3.78q-0.36,0.74-1.62,2.7l1.54-1.96q1.12-1.46,3.88-4.16q0.6-0.58,1.33-0.97t1.25-0.39q0.72,0,0.72,0.76q0,0.66-0.63,1.99t-1.27,2.52t-0.78,1.56t-0.2,0.59t-0.08,0.24q0.06-0.1,1.32-1.53t3.72-3.57l3.2-2.64q0.38-0.32,0.68-0.32t0.49,0.5t0.19,0.81t-0.96,1.29q-2.5,2.56-4.24,5.6t-1.74,4.34q0,0.34,0.12,0.47t0.38,0.08t1.09-0.41t1.09-0.42q0.1,0.04,0.1,0.1q0,0.3-1.05,0.84t-1.58,0.54t-0.65-0.18q-0.36-0.52-0.36-1.26q0-1.72,1.84-4.94q1.18-2.02,3.64-5.44q-1.92,1.56-5.2,4.78t-4.3,5.04q-0.52,0.94-1.26,0.94q-0.34,0-0.34-0.24q0-0.08,0.41-0.72t1.81-3q3.44-5.98,3.44-7.2q0-0.32-0.22-0.32q-0.32,0-0.94,0.54q-2.22,1.86-4.72,4.86t-3.76,4.98z M301.6834,24.86q1.96,0,1.96,0.74q0,0.16-0.12,0.36q-0.48,0.74-1.74,0.74q-0.82,0-1.68-0.29t-1.3-0.61q-1.86,0.54-3.31,1.66t-2.17,2.54q-0.38,0.76-0.38,1.48q0,1.12,0.93,1.82t2.73,0.7q0.5,0,1.04-0.06q3.18-0.34,5.06-2.04q1.58-1.4,1.58-2.94q0-1.22-1.18-1.22q-1.42,0-3.26,1.52q-0.46,0.38-0.78,0.96t-0.32,1.14t0.56,0.7q0.2,0.08,0.2,0.2q0,0.2-0.4,0.16q-0.96-0.02-0.96-1.26t1.26-2.32q1.72-1.48,3.64-1.48q1.44,0,1.82,0.9q0.16,0.42,0.16,0.84q0,1.86-2.06,3.5q-2.46,2-6.24,2q-2.34,0-3.7-0.87t-1.36-2.27q0-0.82,0.52-1.64q1.84-2.92,6.28-4.34q-0.66-0.76-0.66-1.62t0.42-1.44q0.82-1.12,2.46-1.84q1.96-0.86,3.92-0.86q1.14,0,1.83,0.37t0.69,1.14t-0.57,1.3t-1.19,0.53t-0.62-0.3q0-0.18,0.26-0.18l0.4,0.06q0.4,0,0.73-0.43t0.33-0.89q0-0.68-0.78-1q-0.5-0.2-0.94-0.2t-0.62,0.02q-1.72,0.1-3.36,1.2q-1.92,1.26-1.92,2.84q0,0.58,0.4,1.08q1.28-0.4,2.44-0.4z M299.5834,25.58q0.86,0.68,1.98,0.68t1.12-0.62q0-0.28-1-0.28t-2.1,0.22z M330.2268,24.06q0,1.02-1.02,2.24t-3.09,1.98t-4.02,0.76t-3.09-0.5q-2.52,3.7-3.28,4.46q-2.16,2.16-5.16,2.16q-1.7,0-2.55-0.79t-0.85-2.05q0-1.74,1.4-3.28q1.54-1.7,3.88-1.7q0.96,0,1.62,0.44t0.66,1.34q0,0.6-0.68,1.44t-0.84,0.84q-0.04,0-0.04-0.08t0.06-0.16q0.64-0.94,0.64-1.73t-0.49-1.22t-1.21-0.43q-1.68,0-2.97,1.53t-1.29,3.09q0,1,0.63,1.62t1.95,0.62q2.46,0,4.22-1.66q1.02-0.96,2.06-2.8l1.74-3.14q1.28-2.06,2.98-6.12l-0.36,0q-2.7,0-5.42,0.59t-4.12,1.69q-0.6,0.46-0.6,0.9t0.47,0.71t1.11,0.27t1.59-0.25t1.43-0.67q0.2-0.16,0.28-0.16q0.16,0,0.06,0.16q-0.72,0.84-2.18,1.26q-0.9,0.26-1.78,0.26t-1.44-0.39t-0.56-1.06t0.72-1.35q1.36-1.32,4.86-1.96q2.48-0.44,5.7-0.44l0.54,0q0.44-0.38,0.8-0.38t0.36,0.28q0,0.06-0.02,0.14q3.1,0.22,5.02,1.04q2.28,0.96,2.28,2.5z M329.2868,23.86q0-1.26-2.04-2.06q-1.78-0.7-4.46-0.84l-0.64,2q-0.76,1.88-2.92,5.24q0.2,0.1,0.68,0.22q0.8,0.14,1.24,0.14q1.52,0,3.5-0.63t3.31-1.84t1.33-2.23z M339.1502,27.44q-1.2,0-2.02-0.55t-0.82-1.39q0-1.06,1.38-2.12q0.24-0.18,0.36-0.18t0.12,0.08q0,0.2-0.32,0.32q-1.12,0.9-1.12,1.82q0,0.66,0.6,1.11t1.5,0.45q1.96,0,3.7-1.88q0.9-0.98,0.9-2.26t-0.96-1.9q-0.8-0.56-2.16-0.56q-1.96,0-3.94,0.98q-2.44,1.18-4.41,3.67t-1.97,4.79q0,1.82,1.24,2.81t3.08,0.99q2.1,0,4.12-1.02q1.54-0.8,2.66-2.04q0.32-0.36,0.5-0.36q0.12,0,0.12,0.21t-0.22,0.43q-1.06,1.12-3.06,2.16q-2.46,1.3-4.95,1.3t-3.71-1.64q-0.82-1.08-0.82-2.58q0-0.66,0.16-1.42q0.54-2.56,2.84-4.98q1.66-1.74,3.94-2.71t4.32-0.97q1.08,0,1.88,0.26q2.18,0.68,2.18,2.74q0,1.26-0.74,2.18q-1.84,2.26-4.38,2.26z"/></svg>
